<svg xmlns="http://www.w3.org/2000/svg" width="1200" height="700" viewBox="0 0 1200 700">
  <defs>
    <style>
      .a {
        fill: #eeefed;
      }

      .b {
        fill: none;
        stroke: #000;
        stroke-miterlimit: 10;
        stroke-width: 5px;
      }

      .c {
        fill: #f9b443;
      }

      .d {
        fill: #e72b78;
      }

      .e {
        fill: #fff;
      }
    </style>
  </defs>
  <rect class="a" x="25.1868" y="10.8102" width="1149.6264" height="669.5723" rx="64.3444"/>
  <path class="b" d="M371.1077,495.8711a262.51,262.51,0,0,1,85.4542-347.9858"/>
  <path class="b" d="M862.2884,373.12C859.3407,515.4527,743.0388,629.9275,600,629.9275a262.1136,262.1136,0,0,1-219.33-118.35"/>
  <path class="b" d="M496.16,126.5888A261.4822,261.4822,0,0,1,600,105.2361c137.81,0,250.802,106.2584,261.5149,241.3141"/>
  <g>
    <rect class="c" x="477.1355" y="70.0725" width="245.729" height="136.4516" rx="9.817"/>
    <g>
      <path d="M561.3649,127.52H551.98a2.2358,2.2358,0,0,0-1.5781.4561,1.9836,1.9836,0,0,0-.4746,1.4824v4.4834h10.0312v4.2188H549.9274v11.0195h-5.8145v-20.9a5.1483,5.1483,0,0,1,1.5781-3.9707,5.9312,5.9312,0,0,1,4.1993-1.4629,112.2361,112.2361,0,0,1,11.7793.418Z"/>
      <path d="M576.2242,141.6942h-6.7636a3.8723,3.8723,0,0,0,1.2343,2.7549,5.5937,5.5937,0,0,0,3.211.7031,68.0037,68.0037,0,0,0,6.9922-.418l.5312,3.4961a19.2511,19.2511,0,0,1-8.17,1.4063q-5.2823,0-7.5234-2.28-2.2441-2.2792-2.2422-7.5235,0-5.5092,2.1855-7.7138,2.1826-2.2045,7.3516-2.2041,4.6758,0,6.7656,1.6142a5.9249,5.9249,0,0,1,2.127,4.9209,5.2476,5.2476,0,0,1-1.35,3.9336A6.0773,6.0773,0,0,1,576.2242,141.6942Zm-6.8789-3.3819h5.32a1.6233,1.6233,0,0,0,1.3868-.4941,2.4308,2.4308,0,0,0,.3613-1.4434,2.1748,2.1748,0,0,0-.6836-1.8437,4.4112,4.4112,0,0,0-2.5078-.5127,4.0017,4.0017,0,0,0-2.9649.8555A5.6315,5.6315,0,0,0,569.3453,138.3123Z"/>
      <path d="M592.8688,134.2088v8.8535a1.9533,1.9533,0,0,0,.4551,1.4825,2.368,2.368,0,0,0,1.5957.4179h2.3945l.6074,3.9141a16.0782,16.0782,0,0,1-5.2812.76,5.3046,5.3046,0,0,1-3.9532-1.4248,5.409,5.409,0,0,1-1.4043-3.9717V134.2088h-3.3066v-3.5722l3.3066-.19V125.203h5.586v5.2431h5.2051v3.7627Z"/>
      <path d="M616.5426,144.7342l.4941,3.6484a18.2919,18.2919,0,0,1-7.2578,1.254q-5.168,0-7.2773-2.2227t-2.1094-7.6191q0-5.4347,2.1289-7.6573,2.127-2.2236,7.334-2.2226a17.251,17.251,0,0,1,6.916,1.1777l-.6094,3.4961q-4.1045-.0762-5.3574-.0762-2.5839,0-3.5527,1.1016t-.9688,4.1807q0,3.0775.9688,4.18t3.5527,1.1026A41.735,41.735,0,0,0,616.5426,144.7342Z"/>
      <path d="M626.1188,122.5809v6.498a22.8513,22.8513,0,0,1-.3438,3.9131,12.4933,12.4933,0,0,1,7.6778-3.0771,5.3217,5.3217,0,0,1,3.8945,1.33,5.21,5.21,0,0,1,1.3476,3.8759v14.06H633.109V136.869a2.7725,2.7725,0,0,0-.3984-1.73,1.7834,1.7834,0,0,0-1.4239-.4746,11.831,11.831,0,0,0-5.207,1.71v12.8057h-5.623v-26.6Z"/>
    </g>
  </g>
  <rect class="d" x="751.9239" y="362.3281" width="245.729" height="136.4516" rx="9.817"/>
  <g>
    <path class="e" d="M802.524,441.4364v-26.22q5.3951-.3428,10.1836-.3418,6.2711,0,8.7217,2.8877t2.45,10.5635q0,7.6773-2.45,10.5645-2.4521,2.8886-8.7217,2.8877Q807.9205,441.7782,802.524,441.4364Zm5.7754-22.002v17.7461q.646,0,2.1094.0186,1.4619.02,2.2988.0195,2.9268,0,4.0088-1.8623,1.0841-1.8618,1.083-7.03,0-5.1664-1.083-7.0488-1.0826-1.8809-4.0088-1.8809Z"/>
    <path class="e" d="M839.9537,433.95H833.19a3.8792,3.8792,0,0,0,1.2343,2.7549,5.5959,5.5959,0,0,0,3.211.7031,67.985,67.985,0,0,0,6.9922-.4179l.5322,3.4961a19.2513,19.2513,0,0,1-8.17,1.4062q-5.2823,0-7.5244-2.28t-2.2422-7.5234q0-5.5092,2.1855-7.7139t7.3526-2.2041q4.6743,0,6.7646,1.6143a5.9253,5.9253,0,0,1,2.1279,4.9209,5.2513,5.2513,0,0,1-1.35,3.9336A6.08,6.08,0,0,1,839.9537,433.95Zm-6.8779-3.3818h5.32a1.6246,1.6246,0,0,0,1.3867-.4941,2.43,2.43,0,0,0,.3614-1.4434,2.1727,2.1727,0,0,0-.6846-1.8438,4.4071,4.4071,0,0,0-2.5078-.5126,3.9993,3.9993,0,0,0-2.9639.8554Q833.19,427.9838,833.0758,430.5682Z"/>
    <path class="e" d="M864.6539,436.99l.4942,3.6484a18.2911,18.2911,0,0,1-7.2578,1.2539q-5.1681,0-7.2774-2.2226t-2.1094-7.6192q0-5.4345,2.1289-7.6572,2.127-2.2236,7.334-2.2227a17.2424,17.2424,0,0,1,6.916,1.1778l-.6084,3.4961q-4.1045-.0762-5.3584-.0762-2.5839,0-3.5527,1.1016t-.9687,4.1806q0,3.0777.9687,4.18t3.5527,1.1025A41.7262,41.7262,0,0,0,864.6539,436.99Z"/>
    <path class="e" d="M877.1559,422.1707q5.2442,0,7.4287,2.2608t2.1855,7.6572q0,5.3965-2.1855,7.6191t-7.4287,2.2227q-5.2822,0-7.4668-2.2227t-2.1856-7.6191q0-5.4345,2.1856-7.6768Q871.8731,422.1708,877.1559,422.1707Zm0,4.2178q-2.2426,0-3.002,1.14t-.76,4.56q0,3.3442.76,4.4834.76,1.1411,3.002,1.1406a3.328,3.328,0,0,0,2.9453-1.1406q.7778-1.14.7793-4.4834,0-3.3824-.7608-4.541T877.1559,426.3885Z"/>
    <path class="e" d="M908.5436,414.8368v26.6h-4.4463l-.4561-2.7364a8.89,8.89,0,0,1-7.1435,3.1924,5.5273,5.5273,0,0,1-5.0733-2.5273q-1.5775-2.5269-1.5771-7.4668,0-5.3951,1.748-7.5615t5.4346-2.1661a10.6038,10.6038,0,0,1,6.08,1.6719q-.1905-2.09-.19-3.9141v-5.0917Zm-5.624,20.8994v-8.6641a15.73,15.73,0,0,0-3.99-.7217,2.8939,2.8939,0,0,0-2.6025,1.0635q-.7032,1.065-.7031,4.4463,0,3.23.6835,4.3135a2.65,2.65,0,0,0,2.4327,1.083,5.5824,5.5824,0,0,0,2.0136-.3233A12.339,12.339,0,0,0,902.92,435.7362Z"/>
    <path class="e" d="M925.1119,433.95h-6.7636a3.8792,3.8792,0,0,0,1.2343,2.7549,5.5959,5.5959,0,0,0,3.211.7031,67.985,67.985,0,0,0,6.9922-.4179l.5322,3.4961a19.2513,19.2513,0,0,1-8.17,1.4062q-5.2822,0-7.5244-2.28t-2.2422-7.5234q0-5.5092,2.1855-7.7139t7.3526-2.2041q4.6743,0,6.7646,1.6143a5.9253,5.9253,0,0,1,2.1279,4.9209,5.2513,5.2513,0,0,1-1.35,3.9336A6.08,6.08,0,0,1,925.1119,433.95Zm-6.8779-3.3818h5.32a1.6246,1.6246,0,0,0,1.3867-.4941,2.43,2.43,0,0,0,.3614-1.4434,2.1724,2.1724,0,0,0-.6846-1.8438,4.4071,4.4071,0,0,0-2.5078-.5126,3.9993,3.9993,0,0,0-2.9639.8554Q918.3478,427.9838,918.234,430.5682Z"/>
  </g>
  <rect x="202.3471" y="362.3281" width="245.729" height="136.4516" rx="9.817"/>
  <g>
    <path class="e" d="M265.1822,436.9139l.2667,4.2568q-3.5728.38-12.16.38a5.9556,5.9556,0,0,1-4.18-1.4248,5.0849,5.0849,0,0,1-1.5967-3.8574V420.3846a5.0849,5.0849,0,0,1,1.5967-3.8574,5.951,5.951,0,0,1,4.18-1.4248q8.5869,0,12.16.38l-.2667,4.2939H255.1129a1.7809,1.7809,0,0,0-1.3682.4561,2.155,2.155,0,0,0-.4179,1.4824v3.9892h10.45v4.1807h-10.45v5.0537a2.2245,2.2245,0,0,0,.4179,1.52,1.7811,1.7811,0,0,0,1.3682.4551Z"/>
    <path class="e" d="M277.7985,433.57H277.57l-4.4453,7.8663h-5.7763l5.7763-9.6143-5.3584-9.12h5.7383l3.99,7.2207h.38l3.99-7.2207h5.7373l-5.3575,9.12,5.7754,9.6143h-5.7754Z"/>
    <path class="e" d="M302.1569,433.95h-6.7637a3.8793,3.8793,0,0,0,1.2344,2.7549,5.5953,5.5953,0,0,0,3.2109.7031,67.985,67.985,0,0,0,6.9922-.4179l.5322,3.4961a19.2513,19.2513,0,0,1-8.17,1.4062q-5.2822,0-7.5244-2.28t-2.2422-7.5234q0-5.5092,2.1855-7.7139t7.3526-2.2041q4.6743,0,6.7646,1.6143a5.9254,5.9254,0,0,1,2.128,4.9209,5.2509,5.2509,0,0,1-1.35,3.9336A6.08,6.08,0,0,1,302.1569,433.95Zm-6.878-3.3818h5.32a1.6249,1.6249,0,0,0,1.3868-.4941,2.4308,2.4308,0,0,0,.3613-1.4434,2.1724,2.1724,0,0,0-.6846-1.8438,4.4069,4.4069,0,0,0-2.5078-.5126,4,4,0,0,0-2.9639.8554Q295.3927,427.9838,295.2789,430.5682Z"/>
    <path class="e" d="M326.8571,436.99l.4941,3.6484a18.2907,18.2907,0,0,1-7.2578,1.2539q-5.1679,0-7.2774-2.2226t-2.1093-7.6192q0-5.4345,2.1289-7.6572,2.1268-2.2236,7.334-2.2227a17.2424,17.2424,0,0,1,6.916,1.1778l-.6084,3.4961q-4.1046-.0762-5.3584-.0762-2.5841,0-3.5528,1.1016t-.9687,4.1806q0,3.0777.9687,4.18t3.5528,1.1025A41.7262,41.7262,0,0,0,326.8571,436.99Z"/>
    <path class="e" d="M348.5543,422.702v18.7344H344.109l-.418-2.584a12.4649,12.4649,0,0,1-7.7519,3.0781q-5.2823,0-5.2822-5.2061V422.702h5.624v12.3125a2.4,2.4,0,0,0,.418,1.71,2.1105,2.1105,0,0,0,1.5957.4942,11.4758,11.4758,0,0,0,4.6738-1.5586V422.702Z"/>
    <path class="e" d="M360.4869,426.4647v8.8535a1.9529,1.9529,0,0,0,.4561,1.4824,2.3664,2.3664,0,0,0,1.5957.418h2.3935l.6084,3.914a16.0811,16.0811,0,0,1-5.2822.76,5.3018,5.3018,0,0,1-3.9521-1.4248,5.4093,5.4093,0,0,1-1.4053-3.9717V426.4647h-3.3066v-3.5723l3.3066-.19v-5.2432h5.5859v5.2432h5.2061v3.7627Z"/>
    <path class="e" d="M380.7408,433.95h-6.7636a3.8792,3.8792,0,0,0,1.2343,2.7549,5.5959,5.5959,0,0,0,3.211.7031,67.985,67.985,0,0,0,6.9922-.4179l.5322,3.4961a19.2513,19.2513,0,0,1-8.17,1.4062q-5.2823,0-7.5244-2.28t-2.2422-7.5234q0-5.5092,2.1855-7.7139t7.3526-2.2041q4.6743,0,6.7646,1.6143a5.9253,5.9253,0,0,1,2.1279,4.9209,5.2513,5.2513,0,0,1-1.35,3.9336A6.08,6.08,0,0,1,380.7408,433.95Zm-6.8779-3.3818h5.32a1.6246,1.6246,0,0,0,1.3867-.4941,2.43,2.43,0,0,0,.3614-1.4434,2.1724,2.1724,0,0,0-.6846-1.8438,4.4071,4.4071,0,0,0-2.5078-.5126,3.9994,3.9994,0,0,0-2.9639.8554Q373.9767,427.9838,373.8629,430.5682Z"/>
  </g>
  <polygon points="439.612 160.757 449.292 174.444 456.305 159.218 463.317 143.992 446.625 145.531 429.933 147.071 439.612 160.757"/>
  <polygon points="393.141 529.595 407.096 520.306 392.074 512.865 377.053 505.425 378.12 522.154 379.187 538.883 393.141 529.595"/>
  <polygon points="860.163 328.263 843.456 329.633 852.995 343.417 862.535 357.201 869.703 342.047 876.87 326.894 860.163 328.263"/>
</svg>
